<svg xmlns="http://www.w3.org/2000/svg" style="visibility:hidden; width:0; height:0;">

  <symbol id="search" viewBox="0 0 14 14">
    <path d="M11.92 10.7L9.671 8.456l-.037-.029A4.248 4.248 0 108.42 9.64l.036.036 2.24 2.244a.864.864 0 001.224-1.22zM6.087 8.866a2.774 2.774 0 110-5.544 2.774 2.774 0 010 5.544z"/>
  </symbol>

  <symbol id="settings" viewBox="0 0 14 14">
    <path d="M5.3 9.549v.339H2.418a.51.51 0 100 1.021H5.3v.34a.68.68 0 00.682.677h.678a.678.678 0 00.678-.678v-.339h4.248a.51.51 0 100-1.021H7.34v-.34a.678.678 0 00-.678-.677h-.682a.678.678 0 00-.682.678zM8.36 6.15v.34H2.413a.51.51 0 100 1.02H8.36v.34c0 .374.304.678.678.678h.682a.678.678 0 00.679-.678v-.34h1.188a.51.51 0 100-1.02H10.4v-.34a.678.678 0 00-.679-.678h-.682a.678.678 0 00-.678.678zM2.923 2.752v.343h-.506a.509.509 0 100 1.017h.506v.34a.68.68 0 00.678.681h.683a.678.678 0 00.678-.682v-.339h6.625a.509.509 0 100-1.017H4.962v-.343a.678.678 0 00-.678-.678H3.6a.678.678 0 00-.678.678z"/>
  </symbol>

  <symbol id="preferences" viewBox="0 0 14 14">
    <path d="M12.2 6.417c-.018-.147-.19-.257-.337-.257a1.162 1.162 0 01-1.083-.715 1.165 1.165 0 01.292-1.296.292.292 0 00.031-.395 5.175 5.175 0 00-.828-.835.292.292 0 00-.399.035 1.203 1.203 0 01-1.306.292 1.162 1.162 0 01-.704-1.134.289.289 0 00-.258-.31 5.223 5.223 0 00-1.175 0 .292.292 0 00-.261.296 1.165 1.165 0 01-.715 1.117 1.21 1.21 0 01-1.295-.296.292.292 0 00-.396-.034 5.196 5.196 0 00-.845.842.292.292 0 00.034.398c.361.33.481.853.289 1.306a1.21 1.21 0 01-1.134.705.285.285 0 00-.306.257 5.292 5.292 0 000 1.19c.014.147.193.257.344.257a1.148 1.148 0 011.075.718c.182.447.066.963-.295 1.292a.292.292 0 00-.031.396c.244.309.522.59.828.835a.292.292 0 00.399-.031 1.203 1.203 0 011.306-.292 1.162 1.162 0 01.704 1.134.292.292 0 00.258.306 5.203 5.203 0 001.175 0 .292.292 0 00.261-.296 1.162 1.162 0 01.715-1.117 1.206 1.206 0 011.295.296.292.292 0 00.396.034c.309-.247.598-.53.845-.838a.292.292 0 00-.034-.4 1.158 1.158 0 01.78-2.013h.065a.292.292 0 00.306-.254 5.292 5.292 0 000-1.19zM7.01 8.754a1.746 1.746 0 110-3.491 1.746 1.746 0 010 3.491z"/>
  </symbol>

  <symbol id="arrow-down-solid" viewBox="0 0 14 14">
    <path d="M7.504 10.379l2.978-3.694c.083-.108.07-.245.07-.35 0-.407-.404-.407-.508-.407H3.955c-.089 0-.508 0-.508.41 0 .102-.013.239.07.347l2.978 3.694c.233.305.503.254.503.254s.273.05.505-.255z"/>
  </symbol>
  
  <symbol id="hamburger" viewBox="0 0 14 14">
    <path d="M2.875 5.027h8.252a.895.895 0 000-1.791H2.875a.895.895 0 000 1.79zM11.127 6.1H2.875a.899.899 0 000 1.798h8.252a.897.897 0 100-1.794zm0 2.872H2.875a.895.895 0 100 1.791h8.252a.895.895 0 000-1.79z"/>
  </symbol>

  <symbol id="settings" viewBox="0 0 14 14">
    <path d="M5.3 9.549v.339H2.418a.51.51 0 100 1.021H5.3v.34a.68.68 0 00.682.677h.678a.678.678 0 00.678-.678v-.339h4.248a.51.51 0 100-1.021H7.34v-.34a.678.678 0 00-.678-.677h-.682a.678.678 0 00-.682.678zM8.36 6.15v.34H2.413a.51.51 0 100 1.02H8.36v.34c0 .374.304.678.678.678h.682a.678.678 0 00.679-.678v-.34h1.188a.51.51 0 100-1.02H10.4v-.34a.678.678 0 00-.679-.678h-.682a.678.678 0 00-.678.678zM2.923 2.752v.343h-.506a.509.509 0 100 1.017h.506v.34a.68.68 0 00.678.681h.683a.678.678 0 00.678-.682v-.339h6.625a.509.509 0 100-1.017H4.962v-.343a.678.678 0 00-.678-.678H3.6a.678.678 0 00-.678.678z"/>
  </symbol>

  <symbol id="add" viewBox="0 0 14 14">
    <path d="M7.67 11.707V7.715h3.987a.667.667 0 100-1.33H7.67V2.393a.667.667 0 10-1.33 0v3.992H2.342a.667.667 0 100 1.33h3.992v3.992a.667.667 0 001.33 0z" clip-rule="evenodd"/>
  </symbol>

  <symbol id="album" viewBox="0 0 14 14">
    <path d="M10.27 9.725v-5.45a.545.545 0 00-.541-.549h-.435v5.237a.328.328 0 01-.331.327H3.73v.435c0 .301.244.545.545.545h5.45c.301 0 .549-.24.549-.545zm1.094-4.36h-.435v5.233a.328.328 0 01-.331.328H5.365v.434c0 .301.244.549.545.549h5.45c.301 0 .549-.244.549-.545V5.91a.545.545 0 00-.545-.545zm-6-.659a.659.659 0 100 1.318.659.659 0 000-1.318zM8.636 8.09V2.64a.545.545 0 00-.545-.549H2.64a.545.545 0 00-.549.545V8.09c0 .301.244.545.545.545H8.09c.301 0 .545-.244.545-.545zM5.365 7a1.638 1.638 0 110-3.274 1.638 1.638 0 010 3.274z"/>
  </symbol>

</svg>
